<svg width="107" height="24" viewBox="0 0 107 24" fill="none" xmlns="http://www.w3.org/2000/svg"><path d="M18.813 1.294L13.18 21.149c-.542 1.878-1.96 2.378-3.754 2.378-1.793 0-3.211-.5-3.754-2.378L.042 1.294C0 1.169 0 1.084 0 1.002c0-.418.25-.71.667-.71h2.294c.334 0 .626.25.793.793l4.797 18.187c.25 1.001.459 1.21.876 1.21.375 0 .626-.209.876-1.21L15.1 1.085c.167-.542.459-.793.792-.793h2.295c.417 0 .667.292.667.71 0 .083 0 .167-.041.292z" fill="url(#paint0_linear)"/><path d="M40.214 12.932H26.239v.585c0 4.963 1.96 6.799 5.798 6.799 2.42 0 5.507-.167 7.425-.459h.209c.334 0 .668.167.668.584v1.418c0 .542-.167.834-.835.96a37.897 37.897 0 01-7.467.709c-4.797 0-9.469-2.253-9.469-10.011V9.762c0-5.965 3.296-9.76 9.261-9.76 6.09 0 9.177 3.837 9.177 9.76v2.253c0 .542-.292.917-.792.917zm-2.92-3.17c0-4.714-1.794-6.55-5.465-6.55-3.588 0-5.59 2.045-5.59 6.55v.375h11.054v-.375z" fill="url(#paint1_linear)"/><path d="M62.74 23.236h-2.003a.837.837 0 01-.834-.835V8.678c0-4.213-1.418-5.507-4.588-5.507-1.753 0-3.713.668-5.632 1.627v17.603c0 .418-.375.835-.834.835h-2.044c-.417 0-.793-.376-.793-.835V1.127c0-.459.334-.834.793-.834h2.085c.46 0 .793.375.793.834v.793C51.977.627 53.855 0 56.316 0c5.005 0 7.258 3.13 7.258 8.677v13.724c0 .46-.376.835-.835.835z" fill="url(#paint2_linear)"/><path d="M86.017 23.235H83.93c-.46 0-.793-.375-.793-.834v-.793c-2.294 1.293-4.171 1.919-6.632 1.919-5.006 0-7.258-3.128-7.258-8.677V1.127c0-.46.375-.835.834-.835h2.003c.458 0 .834.376.834.835V14.85c0 4.214 1.418 5.507 4.588 5.507 1.752 0 3.712-.668 5.632-1.627V1.127c0-.418.375-.835.834-.835h2.044c.417 0 .793.376.793.835V22.4c0 .459-.334.834-.793.834z" fill="url(#paint3_linear)"/><path d="M99.2 23.527c-1.544 0-4.547-.125-6.591-.625-.543-.126-.876-.376-.876-.835v-1.46c0-.375.333-.625.75-.625h.168c2.002.25 5.047.459 6.549.459 2.711 0 4.129-.71 4.129-2.962 0-1.252-.751-2.044-3.128-3.463l-4.213-2.503c-2.545-1.543-4.255-3.337-4.255-5.965C91.733 1.21 94.987 0 99.283 0c2.336 0 4.547.209 6.507.542.543.083.793.375.793.835v1.376c0 .501-.292.71-.709.71h-.125c-1.461-.126-4.13-.334-6.466-.334-2.336 0-3.88.292-3.88 2.42 0 1.25.96 2.043 2.878 3.17l4.13 2.46c3.462 2.044 4.589 3.838 4.589 6.299 0 4.255-3.129 6.05-7.8 6.05z" fill="url(#paint4_linear)"/><defs><linearGradient id="paint0_linear" x1="9.427" y1="-1.692" x2="9.427" y2="27.274" gradientUnits="userSpaceOnUse"><stop stop-color="#F8B342"/><stop offset="1" stop-color="#F2C35E"/></linearGradient><linearGradient id="paint1_linear" x1="31.787" y1="-1.692" x2="31.787" y2="27.275" gradientUnits="userSpaceOnUse"><stop stop-color="#F8B342"/><stop offset="1" stop-color="#F2C35E"/></linearGradient><linearGradient id="paint2_linear" x1="54.793" y1="-1.692" x2="54.793" y2="27.275" gradientUnits="userSpaceOnUse"><stop stop-color="#F8B342"/><stop offset="1" stop-color="#F2C35E"/></linearGradient><linearGradient id="paint3_linear" x1="78.028" y1="-1.692" x2="78.028" y2="27.274" gradientUnits="userSpaceOnUse"><stop stop-color="#F8B342"/><stop offset="1" stop-color="#F2C35E"/></linearGradient><linearGradient id="paint4_linear" x1="99.366" y1="-1.692" x2="99.366" y2="27.274" gradientUnits="userSpaceOnUse"><stop stop-color="#F8B342"/><stop offset="1" stop-color="#F2C35E"/></linearGradient></defs></svg>